<svg version="1.2" xmlns="http://www.w3.org/2000/svg" viewBox="0 0 15 16" width="15" height="16">
	<style>
		path { fill: white }
	</style>
	<path fill-rule="evenodd" class="s0" d="m11.86 3.71l0.03 0.01h0.01q-0.02 0-0.04-0.01zm0.22 1.13l-0.01 0.01-0.02 0.01q0.01-0.01 0.03-0.02zm-0.18-1.12l0.01 0.01 0.02 0.02q-0.02-0.01-0.03-0.03zm-4.52 11.12q-0.02 0.01-0.04 0.03l0.01-0.01q0.02-0.01 0.03-0.02zm2.64-0.49q0 0.01 0 0.01 0-0.07 0-0.04 0 0.01 0 0.03zm-0.3 0.51l-0.01 0.01q0.02-0.02 0.04-0.03-0.01 0.01-0.03 0.02zm-4.21 0.1q-0.01-0.01-0.03-0.02 0.02 0.01 0.04 0.02zm-0.41-0.4q-0.01-0.02-0.02-0.04 0.02 0.02 0.02 0.04zm2.81-7.17c-0.57 0.25-1.23 0.53-2.07 0.53q-0.53 0-1.05-0.14l0.59 6q0.03 0.39 0.32 0.65 0.29 0.26 0.68 0.27c0 0 0.83 0.04 1.1 0.04 0.3 0 1.19-0.04 1.19-0.04q0.39-0.01 0.68-0.27 0.29-0.26 0.32-0.65l0.63-6.63q-0.41-0.16-0.88-0.16c-0.55 0-1 0.19-1.51 0.4zm-4.91-2.54l-0.01-0.01-0.01-0.01q0.01 0.01 0.02 0.02zm10-0.57l-0.09-0.44c-0.08-0.4-0.25-0.78-0.66-0.92-0.14-0.05-0.28-0.07-0.38-0.16-0.1-0.1-0.13-0.25-0.16-0.38q-0.06-0.38-0.13-0.76c-0.03-0.22-0.06-0.46-0.16-0.66-0.13-0.27-0.4-0.42-0.67-0.52q-0.2-0.08-0.41-0.13c-0.67-0.18-1.37-0.24-2.05-0.28q-1.24-0.07-2.47 0.04c-0.61 0.06-1.25 0.12-1.83 0.33-0.22 0.08-0.44 0.17-0.6 0.34-0.19 0.2-0.26 0.51-0.11 0.76q0.16 0.27 0.46 0.39 0.36 0.16 0.75 0.24c0.71 0.16 1.45 0.22 2.19 0.25q1.22 0.05 2.43-0.08 0.3-0.03 0.6-0.08c0.23-0.03 0.38-0.34 0.31-0.55-0.08-0.26-0.3-0.36-0.55-0.32q-0.06 0.01-0.11 0.02h-0.03q-0.13 0.02-0.26 0.03-0.26 0.03-0.52 0.05-0.6 0.04-1.19 0.04-0.59 0-1.17-0.04-0.27-0.02-0.53-0.04-0.12-0.02-0.24-0.03l-0.08-0.01h-0.02l-0.07-0.01q-0.25-0.04-0.49-0.09-0.02-0.01-0.04-0.03-0.01-0.02-0.01-0.04 0-0.03 0.01-0.05 0.02-0.02 0.04-0.02h0.01q0.2-0.05 0.41-0.08 0.07-0.01 0.14-0.02h0.01q0.13-0.01 0.26-0.03 1.14-0.12 2.28-0.08 0.56 0.01 1.11 0.07 0.12 0.01 0.24 0.02 0.04 0.01 0.09 0.02h0.06q0.27 0.04 0.53 0.1c0.26 0.06 0.6 0.08 0.71 0.36q0.05 0.14 0.08 0.29l0.02 0.12q0.01 0.01 0.01 0.01 0.09 0.43 0.18 0.86 0.01 0.03 0 0.06-0.01 0.04-0.02 0.06-0.02 0.03-0.05 0.05-0.03 0.01-0.06 0.02h-0.04l-0.04 0.01q-0.18 0.02-0.35 0.04-0.35 0.04-0.7 0.07-0.7 0.06-1.4 0.08-0.35 0.01-0.71 0.01-1.42-0.01-2.83-0.17-0.15-0.02-0.3-0.04c0.08 0.01-0.06 0-0.09-0.01q-0.09-0.01-0.19-0.03-0.33-0.05-0.65-0.1-0.39-0.08-0.75 0.1-0.29 0.17-0.45 0.47c-0.1 0.21-0.13 0.44-0.18 0.67-0.04 0.22-0.11 0.47-0.09 0.7 0.06 0.5 0.41 0.91 0.92 1q0.71 0.13 1.43 0.22 2.83 0.34 5.67 0.08 0.23-0.02 0.46-0.05 0.07 0 0.14 0.02 0.07 0.02 0.12 0.07 0.05 0.06 0.08 0.13 0.02 0.06 0.02 0.14l-0.05 0.46q-0.15 1.41-0.29 2.82-0.15 1.48-0.3 2.95-0.05 0.42-0.09 0.84c-0.03 0.27-0.03 0.55-0.08 0.82-0.09 0.43-0.37 0.69-0.79 0.78q-0.58 0.13-1.17 0.14-0.66-0.01-1.31-0.02c-0.47 0.01-1.04-0.04-1.4-0.38-0.32-0.31-0.36-0.79-0.4-1.2q-0.09-0.82-0.17-1.64l-0.32-3.03-0.2-1.97q-0.01-0.05-0.01-0.1c-0.03-0.23-0.2-0.46-0.46-0.45-0.22 0.01-0.47 0.2-0.45 0.45l0.15 1.46 0.32 3.01q0.13 1.29 0.26 2.57 0.03 0.25 0.06 0.49c0.09 0.9 0.78 1.38 1.63 1.52q0.74 0.11 1.5 0.1c0.65 0.01 1.3 0.04 1.93-0.08 0.94-0.17 1.64-0.8 1.74-1.77q0.05-0.42 0.09-0.84 0.14-1.39 0.28-2.79l0.32-3.03 0.14-1.39q0.01-0.11 0.08-0.19 0.07-0.08 0.18-0.1c0.27-0.05 0.52-0.14 0.71-0.34 0.31-0.33 0.37-0.75 0.26-1.18zm-0.98 0.51q-0.16 0.14-0.39 0.16c-1.61 0.24-3.24 0.36-4.87 0.31q-1.74-0.08-3.47-0.34c-0.11-0.01-0.24-0.03-0.31-0.12-0.15-0.15-0.08-0.47-0.04-0.66 0.03-0.17 0.1-0.4 0.31-0.43 0.32-0.04 0.7 0.1 1.01 0.15q0.58 0.09 1.16 0.14c1.66 0.15 3.34 0.13 4.98-0.09q0.45-0.07 0.9-0.15c0.27-0.04 0.56-0.13 0.72 0.14 0.11 0.19 0.13 0.44 0.11 0.65q-0.01 0.14-0.11 0.24zm-9.09-0.01q0 0 0.02 0.02-0.02-0.02-0.02-0.02zm0.08 0.08q0 0 0 0 0 0 0 0zm-0.11-0.23q0-0.04 0-0.05-0.01 0.01 0 0.05zm9.15 0.24h-0.01zm-0.15-1.14q-0.01 0-0.01 0 0 0 0 0 0 0 0.01 0zm-0.01 0z"/>
</svg>
