<svg xmlns="http://www.w3.org/2000/svg" height="16" width="15" viewBox="0 0 480 512">
    <style>
        path {
            fill: white;
        }
    </style>
    <path d="m478 212.7v5.8c0 60.2-48.5 108.7-108.6 108.7h-31v33c0 27.2-23.3 50.5-50.4 50.5h-236.6c-27.1 0-50.4-23.4-50.4-50.5v-232.9c0-13.7 11.6-25.3 25.2-25.3h343.2c60.1 0 108.6 48.5 108.6 110.7zm-259.8-42.8c-29.1 0-46.6 11.7-54.3 35-7.8-23.4-25.2-35-54.3-35-42.7 0-60.1 54.3-36.8 89.3 13.5 23.3 44.6 52.4 91.1 89.3 44.5-35 75.6-66 91.1-89.3 23.3-35 7.8-89.3-36.8-89.3zm203.6 44.7c0-31.1-25.2-54.4-54.3-54.4h-29.1v108.7h29.1c29.1 0 54.3-25.3 54.3-54.3z"/>
</svg>