<svg version="1.2" xmlns="http://www.w3.org/2000/svg" viewBox="0 0 1762 634" width="1762" height="634"><defs><linearGradient id="P" gradientUnits="userSpaceOnUse"/><linearGradient id="g1" x2="1" href="#P" gradientTransform="matrix(643.662,-643.662,659.099,659.099,478.338,718.882)"><stop offset=".06" stop-color="#2081ff"/><stop offset=".17" stop-color="#1a92f8"/><stop offset=".4" stop-color="#0eb5ea"/><stop offset=".63" stop-color="#06cee0"/><stop offset=".83" stop-color="#01dddb"/><stop offset="1" stop-color="#00e3d9"/></linearGradient><linearGradient id="g2" x2="1" href="#P" gradientTransform="matrix(643.662,-643.662,659.099,659.099,269.944,716.882)"><stop offset=".06" stop-color="#2081ff"/><stop offset=".17" stop-color="#1a92f8"/><stop offset=".4" stop-color="#0eb5ea"/><stop offset=".63" stop-color="#06cee0"/><stop offset=".83" stop-color="#01dddb"/><stop offset="1" stop-color="#00e3d9"/></linearGradient><linearGradient id="g3" x2="1" href="#P" gradientTransform="matrix(643.662,-643.662,659.099,659.099,41.992,717.882)"><stop offset=".06" stop-color="#2081ff"/><stop offset=".17" stop-color="#1a92f8"/><stop offset=".4" stop-color="#0eb5ea"/><stop offset=".63" stop-color="#06cee0"/><stop offset=".83" stop-color="#01dddb"/><stop offset="1" stop-color="#00e3d9"/></linearGradient></defs><style>.a{fill:url(#g1)}.b{fill:url(#g2)}.c{fill:url(#g3)}.d{fill:#fff}</style><path class="a" d="m466.2 625.5c-6.5-4.6-7.9-15.1-10-25.1-146.7-691.6 545.8-726.5 631.8-387.7-5.6-9.7-35.7-31.1-35.7-31.1-223.4-116-340.1 97.8-210.5 269.4 60.8 80.3 188.8 124.4 274.8 156.3 156.4 35.2-370.6 29.3-650.4 18.2z"/><path class="b" d="m257.8 623.5c-6.5-4.6-7.9-15.1-10-25.1-146.7-691.6 545.8-726.5 631.9-387.7-5.7-9.7-35.7-31.1-35.7-31.1-223.5-116-340.2 97.8-210.5 269.4 60.7 80.3 188.7 124.4 274.7 156.3 156.4 35.2-370.6 29.3-650.4 18.2z"/><path class="c" d="m29.9 624.5c-6.6-4.6-7.9-15.1-10-25.1-146.7-691.6 545.7-726.5 631.8-387.7-5.6-9.7-35.7-31.1-35.7-31.1-223.4-116-340.1 97.8-210.5 269.4 60.7 80.3 188.8 124.4 274.7 156.3 156.5 35.2-370.5 29.3-650.3 18.2z"/><path class="d" d="m299.9 377.2v20.9q76.5-0.4 111-2.2-1.4 8.3-1.8 17.1-0.2 8.7-0.2 22h-156.6q1.6-39.1 1.6-73.1 0-34.1-1.6-73.2h156.6v36.5h-109v19.3q9.6 0.2 28.6 0.2 32 0 66.3-1.2v34.7q-34.3-1.2-66.3-1.2-19 0-28.6 0.2zm300 59.8q-45.5 0-67.1-19.3-21.6-19.4-21.6-55.2 0-36.1 21.6-57.1 21.6-20.9 67.1-20.9 63.7 0 85.2 43.7-18.1 6.2-42.5 18.7-5.8-11.2-18.5-16.7-12.5-5.4-25.6-5.4-19.4 0-28.8 10.3-9.5 10-9.5 24.9 0 16.2 10.1 26.4 10.3 10.1 31.2 10.1 16.7 0 26.6-5.4 9.9-5.7 14.5-17.8 16.5 8.9 42.3 20-10 24.4-33.6 34-23.6 9.7-51.4 9.7zm185.6-19.3q6.8-10.3 11.3-19.2 4.6-8.8 8.8-20.5 14.3 8.2 33.3 12.9 18.9 4.6 35.3 4.6 16.7 0 23.5-2.8 6.9-3 6.9-6.5 0-12.3-37.5-12.3-41.1 0-59.6-8.4-18.6-8.7-18.6-27.8 0-27.2 22.6-40.1 22.6-12.9 58.6-12.9 21 0 42.9 5.4 22.2 5.3 39.9 14.5-5.8 13.3-12.3 32.5-1.2 4-2 6-10.2-8.2-31-13.7-20.8-5.6-36.7-5.6-19.1 0-25.8 2.6-6.6 2.4-6.6 7.2 0 4.9 9.1 7.9 9.2 2.8 26.6 2.8 42.7 0 62 9.9 19.4 9.7 19.4 29.8 0 28.2-20.6 40.7-20.5 12.3-62.3 12.3-22.3 0-45.5-4.8-23.2-5.1-41.7-14.5zm443.5-129v42.3q-31.6-1-61.5-1.2v105.2h-50.3v-105.2q-30.1 0.2-61.3 1.2v-42.3zm279.7 146.3h-52.2q-3.8-11.5-10.3-28.8h-64.2l-10.1 28.8h-50.6l56.4-146.3h74.2zm-115.3-60.2h41.3q-7.6-21.2-15.7-42.4l-4.8-13.1q-7.1 18.4-20.8 55.5z"/></svg>